<svg xmlns="http://www.w3.org/2000/svg" width="190" height="61"><title>appstore</title><desc>Created with Sketch.</desc><g fill="none"><g><g transform="translate(-744 -766) translate(744 766.34)"><rect width="190" height="60" fill="#000" rx="4"/><g><g><g><path id="Shape" fill="#000" d="M165.06 55H9.86C6.6 55 4 52.4 4 49.2V11.8C4 8.6 6.62 6 9.85 6h155.2c3.23 0 5.95 2.6 5.95 5.8v37.4c0 3.2-2.72 5.8-5.94 5.8zM169.8 49.2c0 2.6-2.12 4.7-4.74 4.7H9.86c-2.63 0-4.76-2.1-4.76-4.7V11.8c0-2.6 2.13-4.7 4.75-4.7h155.2c2.63 0 4.75 2.1 4.75 4.7v37.4z"/><g id="Shape" fill="#fff"><path d="M41.27 30.24c-.04-3.95 3.26-5.87 3.4-5.96-1.85-2.7-4.75-3.07-5.77-3.1-2.43-.25-4.8 1.44-6.03 1.44-1.27 0-3.18-1.42-5.23-1.37-2.65.04-5.13 1.55-6.5 3.9-2.8 4.82-.7 11.88 2 15.76 1.33 1.92 2.9 4.04 4.96 3.97 2-.1 2.76-1.27 5.18-1.27 2.4 0 3.1 1.27 5.2 1.22 2.16-.04 3.52-1.9 4.82-3.83 1.55-2.2 2.17-4.34 2.2-4.45-.05-.02-4.2-1.58-4.23-6.3zM37.3 18.62c1.1-1.33 1.83-3.16 1.63-5-1.57.06-3.53 1.07-4.65 2.38-1 1.15-1.9 3.04-1.66 4.82 1.76.13 3.56-.88 4.7-2.2z"/></g><g id="Shape" fill="#fff"><path d="M70.36 44.6h-2.8L66 39.8h-5.34l-1.46 4.8h-2.74l5.3-16.3h3.28l5.32 16.3zm-4.8-6.8l-1.4-4.26c-.15-.44-.43-1.46-.83-3.07h-.05c-.16.7-.43 1.7-.78 3.07l-1.37 4.25h4.42zM84 38.57c0 2-.56 3.58-1.65 4.74-.97 1.04-2.2 1.56-3.64 1.56-1.55 0-2.67-.56-3.36-1.67h-.05v6.18h-2.64V36.7c0-1.25-.04-2.54-.1-3.86h2.32l.14 1.86h.05c.88-1.4 2.22-2.1 4-2.1 1.4 0 2.58.54 3.5 1.64.95 1.1 1.42 2.54 1.42 4.33zm-2.7.1c0-1.15-.26-2.1-.78-2.83-.57-.78-1.33-1.17-2.3-1.17-.65 0-1.24.22-1.77.65-.52.42-.87.98-1.03 1.68-.08.32-.13.6-.13.8v1.95c0 .86.26 1.58.8 2.17.52.6 1.2.88 2.05.88 1 0 1.77-.38 2.32-1.13.56-.76.83-1.76.83-3zM97.64 38.57c0 2-.54 3.58-1.63 4.74-.97 1.04-2.18 1.56-3.63 1.56-1.57 0-2.7-.56-3.37-1.67h-.05v6.18H86.3V36.7c0-1.25-.02-2.54-.1-3.86h2.33l.15 1.86h.05c.88-1.4 2.2-2.1 4-2.1 1.4 0 2.57.54 3.5 1.64.94 1.1 1.4 2.54 1.4 4.33zm-2.68.1c0-1.15-.26-2.1-.8-2.83-.56-.78-1.32-1.17-2.28-1.17-.65 0-1.24.22-1.77.65-.52.42-.87.98-1.03 1.68-.08.32-.12.6-.12.8v1.95c0 .86.26 1.58.8 2.17.52.6 1.2.88 2.06.88 1 0 1.77-.38 2.32-1.13.56-.76.84-1.76.84-3zM112.9 40.02c0 1.4-.48 2.52-1.45 3.4-1.08.94-2.57 1.4-4.5 1.4-1.76 0-3.18-.32-4.26-1l.6-2.18c1.16.7 2.43 1.04 3.82 1.04 1 0 1.77-.22 2.32-.66.55-.45.83-1.04.83-1.78 0-.67-.23-1.22-.68-1.68-.47-.45-1.23-.87-2.3-1.26-2.87-1.06-4.3-2.62-4.3-4.67 0-1.34.5-2.44 1.5-3.3 1-.85 2.36-1.28 4.04-1.28 1.5 0 2.74.26 3.73.78l-.66 2.12c-.9-.5-1.96-.75-3.14-.75-.92 0-1.65.23-2.17.68-.45.4-.67.9-.67 1.48 0 .64.25 1.18.76 1.6.43.38 1.22.8 2.38 1.25 1.42.58 2.46 1.24 3.13 2 .68.75 1 1.7 1 2.82zM121.63 34.8h-2.9v5.7c0 1.46.5 2.18 1.53 2.18.47 0 .86-.04 1.17-.12l.07 1.98c-.52.2-1.2.3-2.05.3-1.04 0-1.85-.32-2.44-.95-.58-.64-.87-1.7-.87-3.18V34.8h-1.73v-1.97h1.73v-2.15l2.6-.77v2.93h2.9v1.97zM134.74 38.62c0 1.8-.52 3.3-1.56 4.45-1.1 1.2-2.54 1.8-4.35 1.8-1.74 0-3.13-.58-4.16-1.73-1.04-1.14-1.55-2.6-1.55-4.33 0-1.8.53-3.3 1.6-4.46 1.06-1.16 2.5-1.74 4.3-1.74 1.75 0 3.15.57 4.2 1.7 1.02 1.13 1.52 2.56 1.52 4.32zm-2.73.08c0-1.08-.23-2-.7-2.8-.55-.93-1.34-1.4-2.37-1.4-1.06 0-1.86.48-2.42 1.4-.46.8-.7 1.73-.7 2.85 0 1.1.24 2.02.7 2.8.58.93 1.38 1.4 2.4 1.4s1.8-.48 2.38-1.43c.48-.8.73-1.73.73-2.82zM143.32 35.13c-.26-.04-.54-.07-.83-.07-.94 0-1.66.35-2.16 1.04-.44.62-.66 1.4-.66 2.32v6.17h-2.64l.02-8.06c0-1.36-.03-2.6-.1-3.7h2.3l.1 2.25h.07c.28-.8.72-1.4 1.32-1.87.6-.42 1.22-.63 1.9-.63.25 0 .47 0 .67.04v2.5zM155.1 38.16c0 .47-.02.86-.08 1.18h-7.92c.03 1.16.42 2.05 1.15 2.67.67.55 1.53.83 2.6.83 1.16 0 2.23-.2 3.2-.56l.4 1.8c-1.12.5-2.45.74-3.98.74-1.84 0-3.28-.53-4.33-1.6-1.05-1.07-1.58-2.5-1.58-4.3 0-1.8.5-3.26 1.47-4.44 1.02-1.26 2.4-1.9 4.15-1.9 1.7 0 3 .64 3.9 1.9.68 1 1.03 2.23 1.03 3.7zm-2.5-.68c0-.77-.16-1.44-.52-2-.45-.73-1.15-1.1-2.1-1.1-.86 0-1.56.36-2.1 1.07-.44.56-.7 1.24-.78 2.03h5.5z"/></g><g fill="#fff"><path d="M64.68 18.26c0 1.44-.44 2.53-1.3 3.26-.82.67-1.97 1-3.45 1-.74 0-1.37-.03-1.9-.1v-7.87c.7-.1 1.43-.16 2.23-.16 1.42 0 2.5.3 3.2.9.8.7 1.22 1.68 1.22 2.96zm-1.37.04c0-.94-.24-1.65-.74-2.15s-1.23-.75-2.2-.75c-.4 0-.75.02-1.03.08v6c.16 0 .45.02.87.02 1 0 1.76-.27 2.3-.8.54-.56.8-1.36.8-2.4zM71.92 19.52c0 .9-.25 1.62-.76 2.2-.54.57-1.25.87-2.14.87-.86 0-1.54-.3-2.05-.86-.5-.56-.76-1.27-.76-2.12 0-.9.27-1.63.8-2.2.52-.57 1.23-.86 2.12-.86.85 0 1.54.28 2.06.85.5.55.74 1.26.74 2.12zm-1.34.04c0-.53-.12-1-.35-1.37-.27-.47-.66-.7-1.16-.7-.52 0-.92.23-1.2.7-.22.37-.34.84-.34 1.4 0 .52.12.98.35 1.36.28.46.67.7 1.18.7.5 0 .88-.25 1.16-.72.24-.38.36-.85.36-1.38zM81.64 16.68l-1.82 5.78h-1.2l-.74-2.5c-.2-.64-.35-1.26-.47-1.88h-.02c-.1.64-.27 1.26-.47 1.87l-.8 2.5h-1.2l-1.7-5.77h1.33l.66 2.75c.15.65.28 1.26.38 1.85h.03c.1-.48.26-1.1.5-1.84l.8-2.76h1.07l.8 2.7c.18.66.34 1.3.46 1.9h.04c.08-.6.22-1.23.4-1.9l.7-2.7h1.27zM88.36 22.46h-1.3v-3.3c0-1.03-.38-1.54-1.17-1.54-.4 0-.7.14-.94.42-.24.28-.36.6-.36 1v3.4h-1.3v-4.1c0-.52-.02-1.07-.05-1.66h1.14l.05.9h.04c.14-.28.36-.5.66-.7.35-.2.74-.32 1.18-.32.54 0 1 .17 1.35.52.44.43.66 1.07.66 1.92v3.46zM91.94 22.46h-1.3v-8.43h1.3v8.43zM99.57 19.52c0 .9-.25 1.62-.77 2.2-.53.57-1.25.87-2.13.87-.86 0-1.54-.3-2.05-.86-.5-.56-.76-1.27-.76-2.12 0-.9.26-1.63.8-2.2.5-.57 1.22-.86 2.1-.86.86 0 1.55.28 2.07.85.5.55.74 1.26.74 2.12zm-1.34.04c0-.53-.12-1-.35-1.37-.27-.47-.66-.7-1.16-.7-.53 0-.92.23-1.2.7-.23.37-.34.84-.34 1.4 0 .52.12.98.35 1.36.28.46.67.7 1.17.7.5 0 .9-.25 1.17-.72.24-.38.36-.85.36-1.38zM105.85 22.46h-1.17l-.1-.67h-.03c-.4.52-.97.8-1.7.8-.55 0-1-.2-1.34-.54-.3-.3-.44-.7-.44-1.17 0-.72.3-1.26.9-1.63.6-.37 1.43-.55 2.5-.54v-.1c0-.77-.4-1.15-1.2-1.15-.58 0-1.1.14-1.52.42l-.27-.84c.54-.33 1.2-.5 2-.5 1.53 0 2.3.8 2.3 2.4v2.12c0 .58.02 1.03.08 1.38zm-1.35-2v-.88c-1.43-.02-2.15.36-2.15 1.16 0 .3.1.53.25.68.17.15.38.23.64.23.28 0 .55-.1.8-.27.23-.18.38-.4.44-.68 0-.07.02-.14.02-.23zM113.2 22.46h-1.14l-.06-.93h-.03c-.37.7-1 1.06-1.88 1.06-.7 0-1.3-.3-1.76-.83-.46-.55-.7-1.26-.7-2.13 0-.93.26-1.7.76-2.27.5-.54 1.1-.8 1.8-.8.78 0 1.33.25 1.64.78h.03v-3.32h1.3v6.87c0 .56 0 1.08.04 1.56zm-1.33-2.44v-.96c0-.17 0-.3-.04-.4-.07-.32-.23-.58-.47-.78-.24-.2-.53-.32-.86-.32-.5 0-.87.2-1.14.57-.28.38-.42.87-.42 1.46 0 .56.13 1.03.4 1.38.28.38.66.57 1.13.57.43 0 .77-.16 1.03-.47.25-.3.37-.65.37-1.06zM124.3 19.52c0 .9-.26 1.62-.77 2.2-.54.57-1.25.87-2.13.87-.86 0-1.54-.3-2.05-.86-.5-.56-.76-1.27-.76-2.12 0-.9.25-1.63.77-2.2.53-.57 1.23-.86 2.12-.86.85 0 1.54.28 2.06.85.5.55.74 1.26.74 2.12zm-1.34.04c0-.53-.12-1-.35-1.37-.26-.47-.65-.7-1.16-.7-.5 0-.9.23-1.18.7-.24.37-.35.84-.35 1.4 0 .52.12.98.36 1.36.28.46.67.7 1.17.7.5 0 .9-.25 1.17-.72.24-.38.36-.85.36-1.38zM131.27 22.46h-1.3v-3.3c0-1.03-.4-1.54-1.17-1.54-.4 0-.7.14-.94.42-.24.28-.36.6-.36 1v3.4h-1.3v-4.1c0-.52 0-1.07-.04-1.66h1.14l.06.9h.03c.15-.28.37-.5.67-.7.35-.2.74-.32 1.17-.32.55 0 1 .17 1.36.52.45.43.67 1.07.67 1.92v3.46zM140 17.64h-1.43v2.8c0 .72.25 1.08.75 1.08.24 0 .43-.02.58-.06l.03.97c-.25.1-.6.14-1 .14-.5 0-.9-.15-1.2-.46-.3-.3-.43-.82-.43-1.55v-2.9h-.86v-.97h.86v-1.06l1.27-.38v1.44H140v.96zM146.86 22.46h-1.3v-3.3c0-1.02-.4-1.54-1.17-1.54-.6 0-1.03.3-1.25.9-.04.13-.06.28-.06.46v3.47h-1.3v-8.42h1.3v3.48c.42-.62 1-.94 1.77-.94.53 0 .98.18 1.33.53.44.42.66 1.07.66 1.92v3.44zM153.94 19.3c0 .23-.02.42-.05.58H150c.02.57.2 1 .56 1.3.33.27.76.4 1.28.4.57 0 1.1-.08 1.57-.27l.2.9c-.54.24-1.2.36-1.94.36-.9 0-1.62-.26-2.13-.8-.52-.5-.78-1.22-.78-2.1 0-.88.24-1.6.72-2.18.5-.62 1.18-.93 2.04-.93.85 0 1.5.3 1.92.93.35.5.52 1.1.52 1.8zm-1.24-.34c0-.38-.07-.7-.25-.98-.23-.36-.57-.54-1.03-.54-.42 0-.77.18-1.03.52-.23.28-.36.6-.4 1h2.7z"/></g></g></g></g></g></g></g></svg>