<svg xmlns="http://www.w3.org/2000/svg" width="62" height="78"><title>crm-icon</title><desc>Created with Sketch.</desc><g fill="none"><g fill="#D0ABCA"><g><g><g><path d="M60.6 51.5c-3.34 5.4-13.28 9.48-25.47 10.24-.63.04-1.26.07-1.9.1-.1 0-.23 0-.34 0-.64.02-1.26.03-1.9.03-.64 0-1.26 0-1.9-.03-.1 0-.22 0-.33 0-.63-.03-1.27-.06-1.9-.1C14.67 60.98 4.74 56.9 1.4 51.5c-.8-1.28-1.2-.6-1.2.03v8.8c0 5.36 5.44 10.84 13.7 14.18.04.02.07.03.1.04.53.2 1.06.4 1.6.6.12.04.23.08.35.12.58.2 1.18.4 1.8.57.02 0 .05.02.08.03.57.16 1.17.32 1.76.47.12.03.26.06.4.1.62.15 1.26.3 1.9.4.04.02.07.02.1.02.6.12 1.23.22 1.86.32.16.02.32.05.48.07.66.1 1.33.17 2 .24.03 0 .06 0 .08 0 .65.06 1.3.1 1.97.15.17 0 .34 0 .52.02.68.03 1.38.05 2.08.05.7 0 1.4-.02 2.1-.05.17 0 .35-.02.52-.02.66-.04 1.32-.1 1.97-.14 0-.02.04-.02.07-.02.67-.07 1.34-.15 2-.24.16-.02.32-.04.48-.07.63-.1 1.25-.2 1.86-.32.04 0 .07 0 .1 0 .65-.14 1.3-.28 1.92-.43.13-.03.27-.06.4-.1.6-.14 1.2-.3 1.76-.46.03 0 .06-.02.1-.03.6-.18 1.2-.37 1.78-.57.12-.04.23-.08.34-.12.55-.2 1.08-.4 1.6-.6.03-.02.06-.02.1-.03 8.26-3.32 13.7-8.8 13.7-14.17v-8.8c0-.63-.4-1.3-1.2-.04z"/><path d="M61.77 11.28C60.94 5.16 47.5.3 31 .3 13.98.3.2 5.48.2 11.88v5.53c0 6.8 13.78 12.3 30.8 12.3 16.48 0 29.94-5.17 30.77-11.65.02-.2.04-.43.04-.64V11.9c0-.2 0-.4-.03-.6z"/><path d="M60.65 29c-2.88 4.18-10.9 7.48-21.1 8.7-1.32.15-2.68.27-4.07.35-.06 0-.12 0-.2 0-.64.05-1.3.08-1.97.1-.08 0-.16 0-.25 0-.67.03-1.36.04-2.05.04h-.08c-.64 0-1.28-.02-1.9-.04-.13 0-.25 0-.37 0-.64-.02-1.28-.06-1.92-.1-.1 0-.17 0-.26 0-1.35-.1-2.67-.2-3.96-.36C12.3 36.5 4.24 33.2 1.35 29 .6 27.9.2 28.5.2 29v10.35c0 7.7 13.63 13.97 30.52 14.03h.55c.06 0 .12 0 .18 0h.33c16.65-.2 30.02-6.4 30.02-14.03V29c0-.5-.4-1.1-1.15 0z"/></g></g></g></g></g></svg>