<?xml version="1.0" encoding="UTF-8" standalone="no"?>
<svg width="166px" height="32px" viewBox="0 0 166 32" version="1.1" xmlns="http://www.w3.org/2000/svg" xmlns:xlink="http://www.w3.org/1999/xlink" xmlns:sketch="http://www.bohemiancoding.com/sketch/ns">
    <!-- Generator: Sketch 3.5.1 (25234) - http://www.bohemiancoding.com/sketch -->
    <title>diobox-logo</title>
    <desc>Created with Sketch.</desc>
    <defs>
        <path id="path-1" d="M0.00801386297,0.103512832 L32.2173319,0.103512832 L32.2173319,31.7894737 L0.00801386297,31.7894737"></path>
    </defs>
    <g id="Page-1" stroke="none" stroke-width="1" fill="none" fill-rule="evenodd" sketch:type="MSPage">
        <g id="Homepage-HD" sketch:type="MSArtboardGroup" transform="translate(-257.000000, -7912.000000)">
            <g id="Group-7" sketch:type="MSLayerGroup" transform="translate(257.000000, 7910.000000)">
                <g id="diobox-logo" transform="translate(0.000000, 2.000000)">
                    <g id="logo-black-with-tans-mark-single-object">
                        <path d="M20.0854119,8.47583558 C20.0854119,6.7425211 18.7441584,5.94502566 16.1087995,5.94502566 C13.4733071,5.94502566 12.1321872,6.7425211 12.1321872,8.47583558 C12.1321872,10.2088873 13.4733071,11.0063828 16.1087995,11.0063828 C18.7441584,11.0371214 20.0854119,10.2241253 20.0854119,8.47583558" id="Fill-1" fill="#323232" sketch:type="MSShapeGroup"></path>
                        <g id="Group-5">
                            <mask id="mask-2" sketch:name="Clip 3" fill="white">
                                <use xlink:href="#path-1"></use>
                            </mask>
                            <g id="Clip-3"></g>
                            <path d="M19.9292751,22.6165028 L19.9292751,21.205418 L12.2881903,21.205418 L12.2881903,22.6165028 C12.2881903,25.0395963 14.0967857,25.6073406 16.1083988,25.6073406 C18.1201456,25.6073406 19.9292751,25.0395963 19.9292751,22.6165028 Z" id="Fill-2" fill="#323232" sketch:type="MSShapeGroup" mask="url(#mask-2)"></path>
                            <path d="M21.7382711,15.0859443 L21.7382711,17.2024402 L10.4790608,17.2024402 L10.4790608,15.0859443 L15.0438907,15.0859443 L15.0438907,13.0725672 C12.0254692,12.7797625 10.3231911,11.1922592 10.3231911,8.47583558 C10.3231911,5.45425924 12.428433,3.8285298 16.1087995,3.8285298 C19.788899,3.8285298 21.8941408,5.45425924 21.8941408,8.47583558 C21.8941408,11.2077599 20.172763,12.7982845 17.1224196,13.077953 L17.1224196,15.0859443 L21.7382711,15.0859443 L21.7382711,15.0859443 Z M21.7382711,22.7544324 C21.7382711,25.6839243 20.0851448,27.7083358 16.1083988,27.7237051 C12.13192,27.7083358 10.4790608,25.6839243 10.4790608,22.7544324 L10.4790608,19.0887908 L21.7382711,19.0887908 L21.7382711,22.7544324 L21.7382711,22.7544324 Z M16.108666,0.103512832 C7.21207598,0.103512832 0,7.19663767 0,15.9464933 C0,24.6963488 7.21207598,31.7894737 16.108666,31.7894737 C25.0052559,31.7894737 32.2173319,24.6963488 32.2173319,15.9464933 C32.2173319,7.19663767 25.0052559,0.103512832 16.108666,0.103512832 L16.108666,0.103512832 Z" id="Fill-4" fill="#323232" sketch:type="MSShapeGroup" mask="url(#mask-2)"></path>
                        </g>
                    </g>
                    <path d="M50.2845081,25.3333333 C56.7274758,25.3333333 61.0950645,21.132 61.0950645,15.1213333 C61.0950645,9.11066667 56.7274758,4.87866667 50.2845081,4.87866667 L42.6025081,4.87866667 L42.6025081,25.3333333 L50.2845081,25.3333333 Z M50.2845081,22.1746667 L46.2266774,22.1746667 L46.2266774,8.03733333 L50.2845081,8.03733333 C54.8999032,8.03733333 57.3779677,11.1653333 57.3779677,15.1213333 C57.3779677,18.9853333 54.776,22.1746667 50.2845081,22.1746667 L50.2845081,22.1746667 Z M69.9509745,25.3333333 L69.9509745,4.87866667 L66.3268051,4.87866667 L66.3268051,25.3333333 L69.9509745,25.3333333 Z M85.7144893,25.7013333 C91.9096506,25.7013333 96.2772393,21.224 96.2772393,15.1213333 C96.2772393,9.01866667 91.9096506,4.54133333 85.7144893,4.54133333 C79.519328,4.54133333 75.1517393,9.01866667 75.1517393,15.1213333 C75.1517393,21.224 79.519328,25.7013333 85.7144893,25.7013333 L85.7144893,25.7013333 Z M85.7144893,22.512 C81.5327554,22.512 78.8688361,19.3226667 78.8688361,15.1213333 C78.8688361,10.8893333 81.5327554,7.73066667 85.7144893,7.73066667 C89.8652474,7.73066667 92.5601425,10.8893333 92.5601425,15.1213333 C92.5601425,19.3226667 89.8652474,22.512 85.7144893,22.512 L85.7144893,22.512 Z M111.947827,25.3333333 C115.819802,25.3333333 117.957133,22.972 117.957133,19.8133333 C117.957133,17.2986667 116.160536,15.1213333 113.961254,14.784 C115.881754,14.3853333 117.554448,12.668 117.554448,10.092 C117.554448,7.20933333 115.448093,4.87866667 111.669044,4.87866667 L101.50898,4.87866667 L101.50898,25.3333333 L111.947827,25.3333333 Z M110.925625,13.3426667 L105.133149,13.3426667 L105.133149,8.03733333 L110.925625,8.03733333 C112.784173,8.03733333 113.837351,9.172 113.837351,10.7053333 C113.837351,12.2386667 112.784173,13.3426667 110.925625,13.3426667 L110.925625,13.3426667 Z M111.080504,22.1746667 L105.133149,22.1746667 L105.133149,16.5013333 L111.080504,16.5013333 C113.155883,16.5013333 114.240036,17.7893333 114.240036,19.3226667 C114.240036,21.1013333 113.062956,22.1746667 111.080504,22.1746667 L111.080504,22.1746667 Z M132.946253,25.7013333 C139.141414,25.7013333 143.509003,21.224 143.509003,15.1213333 C143.509003,9.01866667 139.141414,4.54133333 132.946253,4.54133333 C126.751091,4.54133333 122.383503,9.01866667 122.383503,15.1213333 C122.383503,21.224 126.751091,25.7013333 132.946253,25.7013333 L132.946253,25.7013333 Z M132.946253,22.512 C128.764519,22.512 126.1006,19.3226667 126.1006,15.1213333 C126.1006,10.8893333 128.764519,7.73066667 132.946253,7.73066667 C137.097011,7.73066667 139.791906,10.8893333 139.791906,15.1213333 C139.791906,19.3226667 137.097011,22.512 132.946253,22.512 L132.946253,22.512 Z M165.963292,25.3333333 L158.250316,14.8146667 L165.498655,4.87866667 L161.131066,4.87866667 L155.834203,12.392 L150.506364,4.87866667 L146.169751,4.87866667 L153.449066,14.8453333 L145.705114,25.3333333 L150.041727,25.3333333 L155.834203,17.3293333 L161.626679,25.3333333 L165.963292,25.3333333 Z" id="DIOBOX" fill="#323232" sketch:type="MSShapeGroup"></path>
                </g>
            </g>
        </g>
    </g>
</svg>