<?xml version="1.0" encoding="UTF-8" standalone="no"?>
<svg width="111px" height="24px" viewBox="0 0 111 24" version="1.1" xmlns="http://www.w3.org/2000/svg" xmlns:xlink="http://www.w3.org/1999/xlink" xmlns:sketch="http://www.bohemiancoding.com/sketch/ns">
    <!-- Generator: Sketch 3.3.3 (12081) - http://www.bohemiancoding.com/sketch -->
    <title>diobox-logo-nav</title>
    <desc>Created with Sketch.</desc>
    <defs>
        <path id="path-1" d="M0.00595041322,0.0776346237 L23.9218512,0.0776346237 L23.9218512,23.8421053 L0.00595041322,23.8421053"></path>
    </defs>
    <g id="Page-1" stroke="none" stroke-width="1" fill="none" fill-rule="evenodd" sketch:type="MSPage">
        <g id="Old-Way---Desktop-HD-Copy" sketch:type="MSArtboardGroup" transform="translate(-42.000000, -25.000000)">
            <g id="Nav" sketch:type="MSLayerGroup">
                <g id="diobox-logo-nav" transform="translate(42.000000, 25.000000)">
                    <g id="logo-black-with-tans-mark-single-object">
                        <path d="M14.913719,6.35687669 C14.913719,5.05689082 13.9178182,4.45876925 11.9610248,4.45876925 C10.0041322,4.45876925 9.00833058,5.05689082 9.00833058,6.35687669 C9.00833058,7.65666551 10.0041322,8.25478708 11.9610248,8.25478708 C13.9178182,8.27784102 14.913719,7.66809395 14.913719,6.35687669" id="Fill-1" fill="#7F647B" sketch:type="MSShapeGroup"></path>
                        <g id="Group-5">
                            <mask id="mask-2" sketch:name="Clip 3" fill="white">
                                <use xlink:href="#path-1"></use>
                            </mask>
                            <g id="Clip-3"></g>
                            <path d="M14.7977851,16.9623771 L14.7977851,15.9040635 L9.12416529,15.9040635 L9.12416529,16.9623771 C9.12416529,18.7796973 10.4670744,19.2055054 11.9607273,19.2055054 C13.4544793,19.2055054 14.7977851,18.7796973 14.7977851,16.9623771 Z" id="Fill-2" fill="#7F647B" sketch:type="MSShapeGroup" mask="url(#mask-2)"></path>
                            <path d="M16.1409917,11.3144582 L16.1409917,12.9018301 L7.7808595,12.9018301 L7.7808595,11.3144582 L11.170314,11.3144582 L11.170314,9.8044254 C8.92909091,9.58482188 7.66512397,8.39419443 7.66512397,6.35687669 C7.66512397,4.09069443 9.22829752,2.87139735 11.9610248,2.87139735 C14.6935537,2.87139735 16.2567273,4.09069443 16.2567273,6.35687669 C16.2567273,8.40581992 14.9785785,9.59871335 12.7136529,9.80846477 L12.7136529,11.3144582 L16.1409917,11.3144582 L16.1409917,11.3144582 Z M16.1409917,17.0658243 C16.1409917,19.2629432 14.9135207,20.7812518 11.9607273,20.7927788 C9.00813223,20.7812518 7.7808595,19.2629432 7.7808595,17.0658243 L7.7808595,14.3165931 L16.1409917,14.3165931 L16.1409917,17.0658243 L16.1409917,17.0658243 Z M11.9609256,0.0776346237 C5.35507438,0.0776346237 0,5.39747825 0,11.9598699 C0,18.5222616 5.35507438,23.8421053 11.9609256,23.8421053 C18.5667769,23.8421053 23.9218512,18.5222616 23.9218512,11.9598699 C23.9218512,5.39747825 18.5667769,0.0776346237 11.9609256,0.0776346237 L11.9609256,0.0776346237 Z" id="Fill-4" fill="#7F647B" sketch:type="MSShapeGroup" mask="url(#mask-2)"></path>
                        </g>
                    </g>
                    <path d="M36.38,18 C40.54,18 43.36,15.26 43.36,11.34 C43.36,7.42 40.54,4.66 36.38,4.66 L31.42,4.66 L31.42,18 L36.38,18 Z M36.38,15.94 L33.76,15.94 L33.76,6.72 L36.38,6.72 C39.36,6.72 40.96,8.76 40.96,11.34 C40.96,13.86 39.28,15.94 36.38,15.94 L36.38,15.94 Z M49.0779529,18 L49.0779529,4.66 L46.7379529,4.66 L46.7379529,18 L49.0779529,18 Z M59.2559059,18.24 C63.2559059,18.24 66.0759059,15.32 66.0759059,11.34 C66.0759059,7.36 63.2559059,4.44 59.2559059,4.44 C55.2559059,4.44 52.4359059,7.36 52.4359059,11.34 C52.4359059,15.32 55.2559059,18.24 59.2559059,18.24 L59.2559059,18.24 Z M59.2559059,16.16 C56.5559059,16.16 54.8359059,14.08 54.8359059,11.34 C54.8359059,8.58 56.5559059,6.52 59.2559059,6.52 C61.9359059,6.52 63.6759059,8.58 63.6759059,11.34 C63.6759059,14.08 61.9359059,16.16 59.2559059,16.16 L59.2559059,16.16 Z M76.1938588,18 C78.6938588,18 80.0738588,16.46 80.0738588,14.4 C80.0738588,12.76 78.9138588,11.34 77.4938588,11.12 C78.7338588,10.86 79.8138588,9.74 79.8138588,8.06 C79.8138588,6.18 78.4538588,4.66 76.0138588,4.66 L69.4538588,4.66 L69.4538588,18 L76.1938588,18 Z M75.5338588,10.18 L71.7938588,10.18 L71.7938588,6.72 L75.5338588,6.72 C76.7338588,6.72 77.4138588,7.46 77.4138588,8.46 C77.4138588,9.46 76.7338588,10.18 75.5338588,10.18 L75.5338588,10.18 Z M75.6338588,15.94 L71.7938588,15.94 L71.7938588,12.24 L75.6338588,12.24 C76.9738588,12.24 77.6738588,13.08 77.6738588,14.08 C77.6738588,15.24 76.9138588,15.94 75.6338588,15.94 L75.6338588,15.94 Z M89.7518118,18.24 C93.7518118,18.24 96.5718118,15.32 96.5718118,11.34 C96.5718118,7.36 93.7518118,4.44 89.7518118,4.44 C85.7518118,4.44 82.9318118,7.36 82.9318118,11.34 C82.9318118,15.32 85.7518118,18.24 89.7518118,18.24 L89.7518118,18.24 Z M89.7518118,16.16 C87.0518118,16.16 85.3318118,14.08 85.3318118,11.34 C85.3318118,8.58 87.0518118,6.52 89.7518118,6.52 C92.4318118,6.52 94.1718118,8.58 94.1718118,11.34 C94.1718118,14.08 92.4318118,16.16 89.7518118,16.16 L89.7518118,16.16 Z M111.069765,18 L106.089765,11.14 L110.769765,4.66 L107.949765,4.66 L104.529765,9.56 L101.089765,4.66 L98.2897647,4.66 L102.989765,11.16 L97.9897647,18 L100.789765,18 L104.529765,12.78 L108.269765,18 L111.069765,18 Z" id="DIOBOX" fill="#856C81" sketch:type="MSShapeGroup"></path>
                </g>
            </g>
        </g>
    </g>
</svg>