<?xml version="1.0" encoding="UTF-8" standalone="no"?>
<svg width="124px" height="24px" viewBox="0 0 124 24" version="1.1" xmlns="http://www.w3.org/2000/svg" xmlns:xlink="http://www.w3.org/1999/xlink" xmlns:sketch="http://www.bohemiancoding.com/sketch/ns">
    <!-- Generator: Sketch 3.3.3 (12081) - http://www.bohemiancoding.com/sketch -->
    <title>diobox-logo</title>
    <desc>Created with Sketch.</desc>
    <defs>
        <path id="path-1" d="M0.00595041322,0.0776346237 L23.9218512,0.0776346237 L23.9218512,23.8421053 L0.00595041322,23.8421053"></path>
    </defs>
    <g id="Page-1" stroke="none" stroke-width="1" fill="none" fill-rule="evenodd" sketch:type="MSPage">
        <g id="Desktop-Big-HD" sketch:type="MSArtboardGroup" transform="translate(-898.000000, -325.000000)">
            <g id="diobox-logo" sketch:type="MSLayerGroup" transform="translate(898.000000, 325.000000)">
                <g id="logo-black-with-tans-mark-single-object">
                    <path d="M14.913719,6.35687669 C14.913719,5.05689082 13.9178182,4.45876925 11.9610248,4.45876925 C10.0041322,4.45876925 9.00833058,5.05689082 9.00833058,6.35687669 C9.00833058,7.65666551 10.0041322,8.25478708 11.9610248,8.25478708 C13.9178182,8.27784102 14.913719,7.66809395 14.913719,6.35687669" id="Fill-1" fill="#FFFFFF" sketch:type="MSShapeGroup"></path>
                    <g id="Group-5">
                        <mask id="mask-2" sketch:name="Clip 3" fill="white">
                            <use xlink:href="#path-1"></use>
                        </mask>
                        <g id="Clip-3"></g>
                        <path d="M14.7977851,16.9623771 L14.7977851,15.9040635 L9.12416529,15.9040635 L9.12416529,16.9623771 C9.12416529,18.7796973 10.4670744,19.2055054 11.9607273,19.2055054 C13.4544793,19.2055054 14.7977851,18.7796973 14.7977851,16.9623771 Z" id="Fill-2" fill="#FFFFFF" sketch:type="MSShapeGroup" mask="url(#mask-2)"></path>
                        <path d="M16.1409917,11.3144582 L16.1409917,12.9018301 L7.7808595,12.9018301 L7.7808595,11.3144582 L11.170314,11.3144582 L11.170314,9.8044254 C8.92909091,9.58482188 7.66512397,8.39419443 7.66512397,6.35687669 C7.66512397,4.09069443 9.22829752,2.87139735 11.9610248,2.87139735 C14.6935537,2.87139735 16.2567273,4.09069443 16.2567273,6.35687669 C16.2567273,8.40581992 14.9785785,9.59871335 12.7136529,9.80846477 L12.7136529,11.3144582 L16.1409917,11.3144582 L16.1409917,11.3144582 Z M16.1409917,17.0658243 C16.1409917,19.2629432 14.9135207,20.7812518 11.9607273,20.7927788 C9.00813223,20.7812518 7.7808595,19.2629432 7.7808595,17.0658243 L7.7808595,14.3165931 L16.1409917,14.3165931 L16.1409917,17.0658243 L16.1409917,17.0658243 Z M11.9609256,0.0776346237 C5.35507438,0.0776346237 0,5.39747825 0,11.9598699 C0,18.5222616 5.35507438,23.8421053 11.9609256,23.8421053 C18.5667769,23.8421053 23.9218512,18.5222616 23.9218512,11.9598699 C23.9218512,5.39747825 18.5667769,0.0776346237 11.9609256,0.0776346237 L11.9609256,0.0776346237 Z" id="Fill-4" fill="#FFFFFF" sketch:type="MSShapeGroup" mask="url(#mask-2)"></path>
                    </g>
                </g>
                <path d="M37.337,19 C42.121,19 45.364,15.849 45.364,11.341 C45.364,6.833 42.121,3.659 37.337,3.659 L31.633,3.659 L31.633,19 L37.337,19 Z M37.337,16.631 L34.324,16.631 L34.324,6.028 L37.337,6.028 C40.764,6.028 42.604,8.374 42.604,11.341 C42.604,14.239 40.672,16.631 37.337,16.631 L37.337,16.631 Z M51.9396457,19 L51.9396457,3.659 L49.2486457,3.659 L49.2486457,19 L51.9396457,19 Z M63.6442914,19.276 C68.2442914,19.276 71.4872914,15.918 71.4872914,11.341 C71.4872914,6.764 68.2442914,3.406 63.6442914,3.406 C59.0442914,3.406 55.8012914,6.764 55.8012914,11.341 C55.8012914,15.918 59.0442914,19.276 63.6442914,19.276 L63.6442914,19.276 Z M63.6442914,16.884 C60.5392914,16.884 58.5612914,14.492 58.5612914,11.341 C58.5612914,8.167 60.5392914,5.798 63.6442914,5.798 C66.7262914,5.798 68.7272914,8.167 68.7272914,11.341 C68.7272914,14.492 66.7262914,16.884 63.6442914,16.884 L63.6442914,16.884 Z M83.1229372,19 C85.9979372,19 87.5849372,17.229 87.5849372,14.86 C87.5849372,12.974 86.2509372,11.341 84.6179372,11.088 C86.0439372,10.789 87.2859372,9.501 87.2859372,7.569 C87.2859372,5.407 85.7219372,3.659 82.9159372,3.659 L75.3719372,3.659 L75.3719372,19 L83.1229372,19 Z M82.3639372,10.007 L78.0629372,10.007 L78.0629372,6.028 L82.3639372,6.028 C83.7439372,6.028 84.5259372,6.879 84.5259372,8.029 C84.5259372,9.179 83.7439372,10.007 82.3639372,10.007 L82.3639372,10.007 Z M82.4789372,16.631 L78.0629372,16.631 L78.0629372,12.376 L82.4789372,12.376 C84.0199372,12.376 84.8249372,13.342 84.8249372,14.492 C84.8249372,15.826 83.9509372,16.631 82.4789372,16.631 L82.4789372,16.631 Z M98.7145829,19.276 C103.314583,19.276 106.557583,15.918 106.557583,11.341 C106.557583,6.764 103.314583,3.406 98.7145829,3.406 C94.1145829,3.406 90.8715829,6.764 90.8715829,11.341 C90.8715829,15.918 94.1145829,19.276 98.7145829,19.276 L98.7145829,19.276 Z M98.7145829,16.884 C95.6095829,16.884 93.6315829,14.492 93.6315829,11.341 C93.6315829,8.167 95.6095829,5.798 98.7145829,5.798 C101.796583,5.798 103.797583,8.167 103.797583,11.341 C103.797583,14.492 101.796583,16.884 98.7145829,16.884 L98.7145829,16.884 Z M123.230229,19 L117.503229,11.111 L122.885229,3.659 L119.642229,3.659 L115.709229,9.294 L111.753229,3.659 L108.533229,3.659 L113.938229,11.134 L108.188229,19 L111.408229,19 L115.709229,12.997 L120.010229,19 L123.230229,19 Z" id="DIOBOX" fill="#FFFFFF" sketch:type="MSShapeGroup"></path>
            </g>
        </g>
    </g>
</svg>