<svg xmlns="http://www.w3.org/2000/svg" width="39" height="63"><title>Imported Layers Copy 6</title><desc>Created with Sketch.</desc><g fill="none"><g fill="#D0D102"><g><g><path d="M37.28 32.38c-.7.03-1.35 0-1.88 0-8.28 0-16.28.03-24.63.03-.66 0-1.53.06-1.8-.12-.48-.3-.38-1.43-.46-2.28-.73-7.9-1.33-15.64-2.03-23.47-.25-2.8-.3-5.73-2.93-6.3h-.6C.95.74.25 2.57 0 4.82v.92C.68 13.5 1.38 21.43 2 29c.18 1.97.32 3.95.53 5.8.42 3.7 1.63 7 3.97 8.62.8.57 1.95 1.25 3.26 1.4.4.06 1.1-.02 1.32.26.25.34-.04 1.5-.13 2.12-.63 4.5-1.25 8.76-1.9 13.18-.1.8-.54 2.27.2 2.4h2.78c.16-1.16.56-4.67.63-5.2.25-1.84.47-3.4.73-5.26.32-2.27.43-3.22.73-5.24.12-.87.04-1.9.8-2.06.74-.18 2.1-.03 2.98-.03h7.36c.5 0 1.12-.08 1.4.05.45.2.5.9.62 1.53.73 3.75 1.38 7.03 2.1 10.76.1.5.87 4.26 1.42 5.4h.93c.67 0 1.94.13 2.17-.2.16-.2.02-.7-.06-1.08-1.2-5.2-2.36-10.15-3.58-15.26-.08-.38-.25-.9-.12-1.13.22-.4 1.7-.17 2.35-.28.72-.13 1.43-.48 1.88-.8 1.02-.7 1.85-1.63 2.44-2.9.96-2.03 1.5-4.83 2-7.4.1-.34.28-.85.1-1.14-.15-.28-1.03-.2-1.64-.18z"/></g></g></g></g></svg>