<svg xmlns="http://www.w3.org/2000/svg" width="56" height="42"><title>Imported Layers Copy 4</title><desc>Created with Sketch.</desc><g fill="none"><g fill="#1F9D7B"><g><g><path d="M53.02 0H2.7C1.37 0 .4 1.18.4 2.64v36.72C.4 40.82 1.44 42 2.7 42h50.4c1.3 0 2.3-1.18 2.3-2.64V2.64C55.32 1.18 54.32 0 53 0zm-1.24 37.96H3.94V4.03h47.84v33.93zM50.9 5H4.8v32h46.1V5zM18.7 20.16h17.88v2.02H18.7v-2.02zm-9.4 5H46.4v1.96H9.3v-1.95zm0 4.94H46.4v2.02H9.3V30.1zm21.83-16.77c-.2.8-.63.57-1.02 1.14-.37.62-.03.95-.7 1.37-.7.43-.7-.14-1.45 0-.76.15-.5.7-1.4.43-.9-.28-.47-.57-1.02-1.14-.55-.56-.9-.04-1.23-.8-.38-.7.04-.85 0-1.6-.04-.77-.55-.77-.38-1.57.17-.76.47-.33 1.02-1.14.55-.8.17-1 .72-1.37.55-.38.76.1 1.44 0 .68-.1.72-.57 1.4-.43.68.2.5.7 1.02 1.14.5.42.98.2 1.23.8.25.62-.04.8 0 1.6.04.82.55.72.38 1.57z"/></g></g></g></g></svg>