<svg xmlns="http://www.w3.org/2000/svg" width="52" height="43"><title>feature-analytics</title><desc>Created with Sketch.</desc><g fill="none"><g fill="#D70060"><g><g><path d="M9.43 40.37c0 1.27-1.03 2.3-2.3 2.3h-4.6c-1.25 0-2.28-1.03-2.28-2.3V26.04c0-1.27 1.03-2.3 2.3-2.3h4.6c1.25 0 2.28 1.03 2.28 2.3v14.33z"/><path d="M23.2 40.37c0 1.27-1.03 2.3-2.3 2.3h-4.58c-1.27 0-2.3-1.03-2.3-2.3v-25.6c0-1.26 1.03-2.3 2.3-2.3h4.6c1.25 0 2.28 1.04 2.28 2.3v25.6z"/><path d="M37.48 40.37c0 1.27-1.03 2.3-2.3 2.3h-4.6c-1.25 0-2.28-1.03-2.28-2.3V3c0-1.26 1.03-2.3 2.3-2.3h4.6c1.25 0 2.28 1.04 2.28 2.3v37.37z"/><path d="M51.25 40.37c0 1.27-1.03 2.3-2.3 2.3h-4.6c-1.25 0-2.28-1.03-2.28-2.3V16.82c0-1.26 1.03-2.3 2.3-2.3h4.6c1.25 0 2.28 1.04 2.28 2.3v23.55z"/></g></g></g></g></svg>