<svg xmlns="http://www.w3.org/2000/svg" width="51" height="45"><title>feature-rsvp</title><desc>Created with Sketch.</desc><g fill="none"><g fill="#E54028"><g><g><path d="M32.84 23.64l-3.52-3.2-.73.8c-1.36 1.46-3.16 2.27-5.08 2.27-1.93 0-3.72-.8-5.07-2.26l-.73-.8-9.7 8.85c-.2.16-.42.24-.65.24-.25 0-.5-.1-.7-.3-.35-.4-.32-1 .07-1.35l9.7-8.86L6.67 8.38c-.35-.38-.32-.98.07-1.34.38-.35.98-.32 1.34.07l11.78 12.86c1.95 2.12 5.38 2.13 7.33 0L38.94 7.12c.36-.4.95-.4 1.34-.06.38.35.4.95.05 1.34L30.6 19.04l4 3.63c1.55-.7 3.27-1.12 5.1-1.12 2.42 0 4.68.72 6.6 1.93V5.45c0-2.6-2.13-4.73-4.75-4.73H5.5C2.87.72.74 2.84.74 5.45v24.63c0 2.6 2.13 4.73 4.74 4.73h21.9c0-.3-.04-.6-.04-.93 0-4.26 2.18-8 5.48-10.23z"/><path d="M39.7 23.45c-5.76 0-10.44 4.67-10.44 10.42 0 5.74 4.68 10.42 10.44 10.42 5.75 0 10.44-4.7 10.44-10.43 0-5.75-4.7-10.42-10.44-10.42zm3.67 13.3c-.53 0-.95-.43-.95-.95 0-.72-.26-1-.95-1h-4.6l2.04 2.6c.33.4.27 1-.15 1.33-.17.13-.38.2-.6.2-.27 0-.55-.13-.74-.36l-3.25-4.12c0-.02 0-.04-.02-.05-.1-.15-.2-.33-.2-.53s.1-.38.2-.53c0-.02 0-.04.02-.06l3.26-4.12c.33-.4.93-.48 1.34-.16.4.33.48.92.16 1.33l-2.04 2.6h4.6c1.74 0 2.86 1.12 2.86 2.87 0 .52-.42.95-.95.95z"/></g></g></g></g></svg>