<svg xmlns="http://www.w3.org/2000/svg" width="38" height="54"><title>Imported Layers Copy</title><desc>Created with Sketch.</desc><g fill="none"><g fill="#00A1CB"><g><g><g><path d="M17.94 3.7c.05-.92.8-1.65 1.72-1.65.92 0 1.66.73 1.7 1.64h1.4C22.7 2 21.33.66 19.65.66c-1.7 0-3.05 1.34-3.1 3.02h1.38z"/><path d="M34.05 7.42H4.57c-2.15 0-3.9 1.76-3.9 3.92V49.1c0 2.15 1.75 3.92 3.9 3.92h29.47c2.16 0 3.92-1.77 3.92-3.92V11.34c0-2.16-1.76-3.92-3.9-3.92zM8.5 44.95c-.8 0-1.46-.65-1.46-1.45 0-.8.65-1.46 1.45-1.46.8 0 1.44.65 1.44 1.46 0 .8-.65 1.45-1.45 1.45zm0-8.86c-.8 0-1.46-.65-1.46-1.46 0-.8.65-1.45 1.45-1.45.8 0 1.44.64 1.44 1.44 0 .8-.65 1.45-1.45 1.45zm0-8.86c-.8 0-1.46-.65-1.46-1.45 0-.8.65-1.46 1.45-1.46.8 0 1.44.65 1.44 1.45 0 .8-.65 1.44-1.45 1.44zm0-8.85c-.8 0-1.46-.66-1.46-1.46 0-.8.65-1.45 1.45-1.45.8 0 1.44.64 1.44 1.44 0 .8-.65 1.45-1.45 1.45zm23.08 26.1H13.54v-2h18.04v2zm0-8.86H13.54v-2h18.04v2zm0-8.85H13.54v-2h18.04v2zm0-8.87H13.54v-1.98h18.04v1.98z"/><path d="M30 6.04c-.24-1.55-1.9-2.77-3.9-2.77H13.2c-2 0-3.66 1.22-3.87 2.77H30z"/></g></g></g></g></g></svg>