<svg xmlns="http://www.w3.org/2000/svg" width="42" height="45"><title>feature-contacts</title><desc>Created with Sketch.</desc><g fill="none"><g fill="#61AE24"><g><g><path d="M22.84 24.36c-4.24 0-8.77 2.43-9.15 9.17H32c-.38-6.74-4.9-9.18-9.16-9.18z"/><path d="M4.5.5H1.73c-.5 0-.92.4-.92.92v42.2c0 .5.4.92.92.92H4.5V.5z"/><path d="M35.7.5H6.32v44.04h31.2c2.02 0 3.66-1.64 3.66-3.67V6c0-3.03-2.48-5.5-5.5-5.5zM22.83 9.68c3.04 0 5.5 2.47 5.5 5.5s-2.46 5.5-5.5 5.5c-3.03 0-5.5-2.47-5.5-5.5s2.47-5.5 5.5-5.5zm10.13 25.7l-.03-.02h-20.2c-.5 0-.9-.4-.9-.9 0-7.26 4.3-11.94 11-11.94 6.6 0 10.9 4.57 11 11.66.04.08.05.18.05.27 0 .5-.42.9-.93.9v.02z"/><path d="M26.5 15.18c0 2.03-1.63 3.67-3.66 3.67-2.02 0-3.67-1.64-3.67-3.67 0-2.03 1.65-3.67 3.67-3.67 2.03 0 3.67 1.65 3.67 3.68z"/></g></g></g></g></svg>